<?xml version="1.0" encoding="utf-8"?>
<!-- Generator: Adobe Illustrator 16.0.0, SVG Export Plug-In . SVG Version: 6.00 Build 0)  -->
<!DOCTYPE svg PUBLIC "-//W3C//DTD SVG 1.1//EN" "http://www.w3.org/Graphics/SVG/1.1/DTD/svg11.dtd">
<svg version="1.1" id="Layer_1" xmlns="http://www.w3.org/2000/svg" xmlns:xlink="http://www.w3.org/1999/xlink" x="0px" y="0px"
	 width="300px" height="255px" viewBox="0 0 300 255" enable-background="new 0 0 300 255" xml:space="preserve">
<g>
	<g>
		<g>
			<path fill="#0066B2" d="M257.512,126.283c0,64.623-53.234,117.808-117.92,117.808c-64.685,0-117.921-53.185-117.921-117.808
				c0-64.62,53.236-117.805,117.921-117.805C204.275,8.478,257.512,61.664,257.512,126.283"/>
			<path fill="#FFFFFF" d="M166.191,188.285c50.238,20.67,41.672-31.59,14.773-71.745c-15.215-22.723-35.062-41.648-47.582-50.783
				c-41.672-30.411-67.088-11.812-37.83,47.83c9.477,19.32,21.65,32.356,31.162,44.649c7.258,9.381,21.403,14.08,16.421,18.531
				c-5.615,5.023-19.211-17.121-19.211-17.121c-10.047-12.106-19.616-25.032-29.479-42.758
				C71.91,76.384,75.162,35.048,115.948,53.06c34.612,15.286,67.677,58.164,80.974,88.612c6.164,14.114,22.76,69.641-30.436,47.204"
				/>
			<path fill="#EC1C24" d="M9.523,161.208c22.167-14.763,43.177-24.296,78.939-36.105c50.247-16.594,88.072-27.753,134.472-51.079
				c22.596-11.358,55.989-33.35,69.451-54.622c-3.854,7.88-15.564,23.626-20.982,30.411
				C208.45,128.645,74.343,124.178,10.407,162.03"/>
			<path display="none" fill="#FFFFFF" d="M41.675,103.588c20.188,0.158,18.296-0.04,18.532,0.197
				c0.356,0,16.195,27.279,16.195,27.515c0,0.12-0.119-9.69-0.119-21.965c0-1.417-3.899-5.55-3.781-5.55
				c5.792,0,13.358,0.118,13.358,0.118c-2.835,3.307-3.402,3.034-3.427,5.081c-0.082,6.572-0.155,18.718,0,32.359
				c0.021,2.042,1.535,2.836,4.018,6.375h-18.56c-6.03-10.038-17.076-28.868-17.024-28.815c0.086,0.088-0.238,11.811,0.117,21.261
				c0.119,3.12,1.538,4.133,4.139,6.966c0,0,2.995-0.08-14.542,0.118c5.32-2.835,4.614-6.378,4.611-6.495
				c-0.192-13.051-0.039-24.211-0.039-31.416c0-1.181-0.08-1.062-3.744-5.55"/>
			<path display="none" fill="#FFFFFF" d="M105.069,123.742c1.7-5.912,3.156-11.198,3.843-14.644
				c0.121-0.592-1.299-2.716-3.544-4.843l-0.16-0.326c10.832,0.033,22.146,0.091,22.146,0.091c2.956,7.204,9.694,27.399,14.777,39.8
				c1.345,3.279,3.664,3.896,3.664,3.896c-9.222-0.116-26.334-0.042-26.242-0.116c4.609-4.132,4.018-4.132,2.008-10.156h-14.422
				c-2.957,6.853,0.92,10.065,1.417,10.039c-3.283,0.17-14.422,0-14.422,0c6.029-4.25,5.675-5.553,5.675-5.553
				C101.467,136.039,103.388,129.587,105.069,123.742l5.913,0.002c-1.271,4.072-2.543,8.146-2.543,8.146h11.469l-6.384-16.3
				c0,0-1.272,4.075-2.542,8.149L105.069,123.742"/>
			<path display="none" fill="#FFFFFF" d="M204.134,124.333c1.701-5.911,3.156-11.197,3.847-14.643
				c0.117-0.592-1.297-2.719-3.545-4.843l-0.158-0.329c10.834,0.034,22.146,0.093,22.146,0.093
				c2.956,7.205,9.692,27.396,14.776,39.8c1.348,3.28,3.668,3.896,3.668,3.896c-9.224-0.113-26.334-0.039-26.244-0.117
				c4.608-4.135,4.019-4.135,2.008-10.154h-14.423c-2.954,6.854,0.922,10.062,1.418,10.035c-3.279,0.171-14.422,0-14.422,0
				c6.027-4.25,5.675-5.549,5.675-5.549C200.533,136.63,202.454,130.176,204.134,124.333l5.914,0.002
				c-1.271,4.07-2.541,8.147-2.541,8.147h11.466l-6.382-16.298c0,0-1.271,4.072-2.544,8.148L204.134,124.333"/>
			<path display="none" fill="#FFFFFF" d="M185.52,114.651c-0.234-8.388,0-11.104,0-11.104c-3.66,2.953-1.813,2.578-10.992,1.062
				c-26.481-4.37-28.49,20.312-14.066,25.866c12.083,4.648,16.355,5.562,14.54,9.918c-0.59,1.42-11.585,6.614-22.937-3.895
				l0.234,14.643c1.418-1.461,5.322-4.135,5.322-4.135c0.119,0,12.298,5.368,23.288-0.234c16.905-8.623,8.469-22.571-9.575-28.107
				c-15.014-4.605-0.829-15.353,14.068-3.896"/>
			<text transform="matrix(1 0 0 1 20.6709 145.3643)" fill="#FFFFFF" font-family="'HelveticaNeue-Bold'" font-size="32">OBSERVATORY</text>
			<path fill="#EC1C24" d="M292.625,19.824C274.654,73.137,202.661,114.3,142.06,153.607
				c-36.562,23.713-72.858,51.012-97.848,74.236c-6.589,6.126,1.346-2.285-1.18,0.297c34.872-40.152,74.986-64.065,97.149-79.125
				c37.493-25.47,58.813-31.887,123.484-91.463"/>
			<path fill="#FFFFFF" d="M166.191,188.285c50.238,20.67,41.672-31.59,14.773-71.745c-15.215-22.723-33.988-40.745-47.582-50.783
				c-15.88-11.724-17.436-12.695-17.436-12.695c35.464,16.828,67.677,58.164,80.974,88.612
				c6.164,14.114,22.761,69.641-30.437,47.204"/>
			<path fill="#FFFFFF" d="M141.218,19.181c0,0.524-0.435,0.958-0.963,0.958c-0.528,0-0.958-0.434-0.958-0.958
				c0-0.527,0.431-0.96,0.958-0.96C140.783,18.221,141.218,18.655,141.218,19.181"/>
			<path fill="#FFFFFF" d="M147.866,33.721c0,0.648-0.534,1.183-1.184,1.183c-0.646,0-1.182-0.535-1.182-1.183
				c0-0.647,0.534-1.18,1.182-1.18C147.332,32.542,147.866,33.074,147.866,33.721"/>
			<path fill="#FFFFFF" d="M165.157,57.489c0,0.646-0.537,1.181-1.187,1.181c-0.646,0-1.182-0.534-1.182-1.181
				c0-0.648,0.534-1.181,1.182-1.181C164.62,56.309,165.157,56.841,165.157,57.489"/>
			<path fill="#FFFFFF" d="M137.376,41.914c0,0.528-0.435,0.961-0.962,0.961s-0.96-0.434-0.96-0.961c0-0.526,0.434-0.958,0.96-0.958
				C136.941,40.956,137.376,41.388,137.376,41.914"/>
			<path fill="#FFFFFF" d="M147.717,47.377c0,0.526-0.433,0.959-0.958,0.959c-0.526,0-0.961-0.433-0.961-0.959
				s0.435-0.96,0.961-0.96C147.285,46.417,147.717,46.851,147.717,47.377"/>
			<path fill="#FFFFFF" d="M134.271,32.098c0,0.647-0.533,1.18-1.184,1.18c-0.646,0-1.183-0.533-1.183-1.18s0.535-1.18,1.183-1.18
				C133.738,30.918,134.271,31.451,134.271,32.098"/>
			<path fill="#FFFFFF" d="M118.608,41.62c0,0.525-0.434,0.959-0.961,0.959c-0.528,0-0.961-0.434-0.961-0.959
				c0-0.526,0.434-0.959,0.961-0.959C118.173,40.661,118.608,41.095,118.608,41.62"/>
			<path fill="#FFFFFF" d="M121.415,43.539c0,0.525-0.434,0.958-0.959,0.958c-0.528,0-0.962-0.432-0.962-0.958
				c0-0.528,0.434-0.959,0.962-0.959C120.982,42.58,121.415,43.013,121.415,43.539"/>
			<path fill="#FFFFFF" d="M124.224,45.458c0,0.527-0.434,0.959-0.961,0.959c-0.528,0-0.96-0.432-0.96-0.959
				c0-0.528,0.433-0.961,0.96-0.961C123.789,44.497,124.224,44.932,124.224,45.458"/>
			<path fill="#FFFFFF" d="M119.938,49.148c0,0.528-0.434,0.959-0.959,0.959c-0.528,0-0.96-0.432-0.96-0.959s0.434-0.959,0.96-0.959
				C119.503,48.189,119.938,48.622,119.938,49.148"/>
			<path fill="#FFFFFF" d="M97.625,64.796c0,0.525-0.434,0.959-0.96,0.959s-0.959-0.435-0.959-0.959
				c0-0.526,0.434-0.959,0.959-0.959C97.191,63.837,97.625,64.271,97.625,64.796"/>
			<path fill="#FFFFFF" d="M101.764,69.816c0,0.525-0.434,0.958-0.962,0.958c-0.528,0-0.96-0.434-0.96-0.958
				c0-0.525,0.434-0.96,0.96-0.96C101.329,68.856,101.764,69.291,101.764,69.816"/>
			<path fill="#FFFFFF" d="M98.51,150.863c0,0.522-0.432,0.961-0.958,0.961c-0.526,0-0.958-0.438-0.958-0.961
				c0-0.526,0.432-0.959,0.958-0.959C98.078,149.904,98.51,150.337,98.51,150.863"/>
			<path fill="#FFFFFF" d="M99.103,173.227c0,0.649-0.535,1.185-1.183,1.185c-0.649,0-1.182-0.532-1.182-1.185
				c0-0.646,0.533-1.181,1.182-1.181C98.568,172.046,99.103,172.579,99.103,173.227"/>
			<path fill="#FFFFFF" d="M86.393,184.669c0,0.524-0.434,0.959-0.959,0.959c-0.528,0-0.961-0.435-0.961-0.959
				s0.434-0.959,0.961-0.959C85.959,183.709,86.393,184.145,86.393,184.669"/>
			<path fill="#FFFFFF" d="M71.172,189.32c0,0.646-0.533,1.181-1.18,1.181c-0.649,0-1.184-0.535-1.184-1.181
				c0-0.648,0.535-1.182,1.184-1.182C70.64,188.141,71.172,188.672,71.172,189.32"/>
			<path fill="#FFFFFF" d="M68.071,178.984c0,0.646-0.536,1.18-1.183,1.18c-0.648,0-1.182-0.532-1.182-1.18
				c0-0.646,0.534-1.186,1.182-1.186C67.535,177.802,68.071,178.34,68.071,178.984"/>
			<path fill="#FFFFFF" d="M66.298,185.555c0,0.527-0.434,0.961-0.962,0.961c-0.525,0-0.959-0.434-0.959-0.961
				c0-0.522,0.434-0.957,0.959-0.957C65.862,184.598,66.298,185.029,66.298,185.555"/>
			<path fill="#FFFFFF" d="M54.92,180.093c0,0.526-0.434,0.959-0.961,0.959c-0.529,0-0.96-0.433-0.96-0.959
				c0-0.524,0.432-0.958,0.96-0.958C54.486,179.135,54.92,179.564,54.92,180.093"/>
			<path fill="#FFFFFF" d="M94.669,198.546c0,0.524-0.434,0.958-0.961,0.958c-0.526,0-0.959-0.434-0.959-0.958
				c0-0.526,0.434-0.96,0.959-0.96C94.236,197.585,94.669,198.02,94.669,198.546"/>
			<path fill="#FFFFFF" d="M106.639,189.764c0,0.648-0.534,1.18-1.182,1.18c-0.649,0-1.182-0.528-1.182-1.18
				c0-0.646,0.533-1.184,1.182-1.184C106.105,188.58,106.639,189.115,106.639,189.764"/>
			<path fill="#FFFFFF" d="M107.968,201.055c0,0.527-0.434,0.963-0.961,0.963c-0.526,0-0.959-0.436-0.959-0.963
				c0-0.522,0.434-0.96,0.959-0.96C107.534,200.095,107.968,200.529,107.968,201.055"/>
			<path fill="#FFFFFF" d="M157.178,190.28c0,0.521-0.435,0.956-0.959,0.956c-0.527,0-0.961-0.435-0.961-0.956
				c0-0.531,0.434-0.96,0.961-0.96C156.742,189.32,157.178,189.749,157.178,190.28"/>
			<path fill="#FFFFFF" d="M134.271,198.398c0,0.521-0.436,0.957-0.961,0.957c-0.526,0-0.962-0.435-0.962-0.957
				c0-0.525,0.436-0.963,0.962-0.963S134.271,197.872,134.271,198.398"/>
			<path fill="#FFFFFF" d="M195.893,210.062c0,0.523-0.433,0.959-0.959,0.959c-0.523,0-0.961-0.436-0.961-0.959
				s0.438-0.961,0.961-0.961C195.46,209.102,195.893,209.538,195.893,210.062"/>
			<path fill="#FFFFFF" d="M200.918,164.667c0,0.646-0.534,1.181-1.182,1.181c-0.649,0-1.188-0.533-1.188-1.181
				s0.535-1.185,1.188-1.185C200.384,163.482,200.918,164.018,200.918,164.667"/>
			<path fill="#FFFFFF" d="M191.456,171.088c0,0.529-0.431,0.958-0.955,0.958c-0.528,0-0.961-0.429-0.961-0.958
				c0-0.525,0.433-0.961,0.961-0.961C191.023,170.126,191.456,170.562,191.456,171.088"/>
			<path fill="#FFFFFF" d="M200.771,172.934c0,0.648-0.537,1.187-1.187,1.187c-0.646,0-1.187-0.535-1.187-1.187
				c0-0.646,0.537-1.181,1.187-1.181C200.234,171.752,200.771,172.284,200.771,172.934"/>
			<path fill="#FFFFFF" d="M191.456,184.371c0,0.529-0.431,0.961-0.955,0.961c-0.528,0-0.961-0.432-0.961-0.961
				c0-0.521,0.433-0.958,0.961-0.958C191.023,183.413,191.456,183.85,191.456,184.371"/>
			<path fill="#FFFFFF" d="M215.545,158.245c0,0.524-0.432,0.959-0.958,0.959s-0.962-0.435-0.962-0.959
				c0-0.529,0.436-0.959,0.962-0.959S215.545,157.716,215.545,158.245"/>
			<path fill="#FFFFFF" d="M217.909,164.075c0,0.646-0.532,1.183-1.181,1.183c-0.649,0-1.187-0.535-1.187-1.183
				c0-0.646,0.535-1.181,1.187-1.181C217.377,162.896,217.909,163.428,217.909,164.075"/>
			<path fill="#FFFFFF" d="M234.463,171.016c0,0.648-0.537,1.18-1.186,1.18c-0.647,0-1.18-0.528-1.18-1.18
				c0-0.646,0.53-1.182,1.18-1.182C233.926,169.834,234.463,170.367,234.463,171.016"/>
			<path fill="#FFFFFF" d="M217.615,183.341c0,0.526-0.438,0.958-0.963,0.958s-0.959-0.432-0.959-0.958s0.435-0.959,0.959-0.959
				C217.18,182.382,217.615,182.812,217.615,183.341"/>
			<path fill="#FFFFFF" d="M228.254,173.302c0,0.526-0.436,0.959-0.959,0.959c-0.527,0-0.96-0.433-0.96-0.959
				c0-0.524,0.433-0.959,0.96-0.959C227.818,172.342,228.254,172.773,228.254,173.302"/>
			<path fill="#FFFFFF" d="M226.334,188.801c0,0.529-0.436,0.963-0.961,0.963s-0.962-0.434-0.962-0.963
				c0-0.521,0.437-0.959,0.962-0.959S226.334,188.277,226.334,188.801"/>
			<path fill="#FFFFFF" d="M230.807,163.042c0,0.81-0.67,1.476-1.479,1.476c-0.812,0-1.479-0.666-1.479-1.476
				s0.664-1.476,1.479-1.476C230.139,161.566,230.807,162.232,230.807,163.042"/>
			<polyline fill="#FFFFFF" points="229.326,158.537 228.883,162.6 224.855,163.042 228.921,163.482 229.365,167.691 
				229.807,163.482 233.798,162.97 229.77,162.6 229.326,158.537 			"/>
			<path fill="#FFFFFF" d="M220.461,188.729c0,0.812-0.669,1.478-1.479,1.478c-0.812,0-1.479-0.666-1.479-1.478
				s0.668-1.479,1.479-1.479C219.792,187.25,220.461,187.917,220.461,188.729"/>
			<polyline fill="#FFFFFF" points="218.98,184.227 218.541,188.285 214.514,188.729 218.573,189.173 219.018,193.378 
				219.463,189.173 223.454,188.654 219.425,188.285 218.98,184.227 			"/>
			<path fill="#FFFFFF" d="M110.224,66.79c0,0.81-0.669,1.476-1.481,1.476c-0.81,0-1.478-0.667-1.478-1.476s0.668-1.476,1.478-1.476
				C109.555,65.313,110.224,65.98,110.224,66.79"/>
			<polyline fill="#FFFFFF" points="108.743,62.288 108.301,66.347 104.275,66.79 108.336,67.232 108.78,71.44 109.224,67.232 
				113.214,66.716 109.187,66.347 108.743,62.288 			"/>
			<path fill="#FFFFFF" d="M165.193,31.066c0,0.808-0.67,1.476-1.479,1.476c-0.807,0-1.478-0.668-1.478-1.476
				c0-0.81,0.671-1.478,1.478-1.478C164.525,29.587,165.193,30.256,165.193,31.066"/>
			<polyline fill="#FFFFFF" points="163.714,26.563 163.271,30.622 159.247,31.066 163.309,31.507 163.754,35.715 164.195,31.507 
				168.188,30.99 164.16,30.622 163.714,26.563 			"/>
			<path fill="#FFFFFF" d="M98.399,212.35c0,0.812-0.665,1.479-1.476,1.479c-0.812,0-1.477-0.666-1.477-1.479
				c0-0.811,0.665-1.478,1.477-1.478C97.734,210.872,98.399,211.539,98.399,212.35"/>
			<polyline fill="#FFFFFF" points="96.923,207.848 96.479,211.907 92.453,212.35 96.516,212.791 96.96,217 97.402,212.791 
				101.394,212.275 97.365,211.907 96.923,207.848 			"/>
			<path fill="#EC1C24" d="M24.515,151.908c-6.454,3.158-12.235,6.277-17.14,9.324l2.983,1.082c4.29-2.642,9.441-5.396,14.866-7.824
				"/>
			<path fill="#EC1C24" d="M58.587,211.564c-5.898,5.146-11.996,10.645-18.113,16.403l-0.271,4.069
				c5.601-5.771,12.478-11.999,20.419-18.608"/>
		</g>
	</g>
</g>
</svg>
